Coordinates
version=1
nRows=16
nColumns=40
inDegrees=yes

Units are S.I. units (second, meters, Newtons, ...)
Angles are in degrees.

endheader
time	pelvis_tilt	pelvis_list	pelvis_rotation	pelvis_tx	pelvis_ty	pelvis_tz	hip_flexion_r	hip_adduction_r	hip_rotation_r	knee_angle_r	knee_angle_r_beta	ankle_angle_r	subtalar_angle_r	mtp_angle_r	hip_flexion_l	hip_adduction_l	hip_rotation_l	knee_angle_l	knee_angle_l_beta	ankle_angle_l	subtalar_angle_l	mtp_angle_l	lumbar_extension	lumbar_bending	lumbar_rotation	arm_flex_r	arm_add_r	arm_rot_r	elbow_flex_r	pro_sup_r	wrist_flex_r	wrist_dev_r	arm_flex_l	arm_add_l	arm_rot_l	elbow_flex_l	pro_sup_l	wrist_flex_l	wrist_dev_l
     33.62750000	     -3.42168436	     -5.62142241	     -1.76881472	      1.04441712	      0.93627619	      0.38468591	     32.27966378	     -4.79145551	     -3.56776144	     58.12510785	     58.12510785	     -0.78429289	     -9.28925196	     -2.59067988	     14.30221864	     -7.70933013	    -11.66448017	     20.67474420	     20.67474420	     11.65990118	     -9.02584776	     -1.93495652	    -10.95559744	      5.76672751	      0.88485947	     -2.35000160	    -11.37747994	     -4.90476494	     27.36269358	     45.51908227	      0.00000000	      0.00000000	     20.49316061	    -20.06074458	     -7.22416471	     43.04742229	     46.08017923	      0.00000000	      0.00000000
     33.64100000	     -3.57969930	     -5.66354371	     -2.11551044	      1.04363842	      0.93663711	      0.38450474	     32.47744981	     -4.51821317	     -3.79550930	     54.89379966	     54.89379966	     -0.47862434	     -8.36807145	     -2.52183297	     13.79465103	     -7.72113055	    -12.00263289	     20.15696555	     20.15696555	     11.75328094	     -8.94044011	     -2.07889347	    -10.93115924	      5.82519046	      0.80440968	     -3.53920781	    -11.31585815	     -4.84207655	     27.18467819	     45.51678953	      0.00000000	      0.00000000	     21.07873187	    -20.53899763	     -7.58488169	     43.74547480	     46.13486392	      0.00000000	      0.00000000
     33.65450000	     -3.67129992	     -5.59720070	     -2.52022533	      1.04296776	      0.93693370	      0.38446934	     32.39163603	     -4.35839635	     -4.07681104	     51.15946232	     51.15946232	     -0.39975149	     -7.21652744	     -3.41796236	     13.10643602	     -7.62728221	    -12.53435904	     19.45037200	     19.45037200	     11.57097961	     -8.75708565	     -2.94086369	    -11.05275847	      5.72473190	      1.00824263	     -5.14354921	    -11.35870707	     -4.65468230	     28.00597385	     45.47994969	      0.00000000	      0.00000000	     21.35968610	    -20.67404141	     -8.79259071	     45.82178346	     46.29789608	      0.00000000	      0.00000000
     33.66800000	     -3.93726289	     -5.64801361	     -2.85782425	      1.04217115	      0.93683991	      0.38463840	     32.29902813	     -4.00307632	     -4.45126756	     47.02496216	     47.02496216	     -0.10127820	     -6.07037639	     -3.23257719	     12.81855086	     -7.67487743	    -12.76657224	     19.11120429	     19.11120429	     11.71754733	     -8.79187863	     -3.07869071	    -10.90989400	      5.80046708	      0.82256043	     -6.04008634	    -11.29583395	     -4.61235357	     27.87535085	     45.47928557	      0.00000000	      0.00000000	     21.75956932	    -21.21274742	     -9.06770234	     46.27065668	     46.33741518	      0.00000000	      0.00000000
     33.68150000	     -4.06836288	     -5.61022690	     -3.19164554	      1.04155035	      0.93683316	      0.38483276	     31.82396723	     -3.77899951	     -4.98932544	     42.46692074	     42.46692074	      0.19070213	     -4.48684496	     -3.21723806	     12.32069610	     -7.62111774	    -13.11381776	     18.67470511	     18.67470511	     11.82730078	     -8.70919587	     -3.31008899	    -10.92713998	      5.76921546	      0.83178575	     -6.96779315	    -11.32060457	     -4.57880485	     27.84403817	     45.47689938	      0.00000000	      0.00000000	     22.14762723	    -21.50946065	     -9.42823279	     47.09355204	     46.38915685	      0.00000000	      0.00000000
     33.69500000	     -4.20763598	     -5.46976168	     -3.54775320	      1.04105408	      0.93656601	      0.38517844	     31.09422154	     -3.59133533	     -5.60165198	     37.39821963	     37.39821963	     -0.39914290	     -3.02024316	     -5.62713326	     11.77042577	     -7.45553895	    -13.53827394	     18.09898796	     18.09898796	     11.49021799	     -8.79188931	     -4.64815938	    -10.99733771	      5.59563566	      0.62305837	     -8.09997725	    -11.39575684	     -4.27087110	     29.13256369	     45.45321847	      0.00000000	      0.00000000	     21.66131427	    -21.75258165	    -11.26481875	     49.75676182	     46.61871247	      0.00000000	      0.00000000
     33.70850000	     -4.52456426	     -5.37788445	     -3.87245461	      1.04054606	      0.93597625	      0.38577351	     30.45747350	     -3.22069533	     -6.15513860	     32.32043115	     32.32043115	     -0.18993688	     -1.40863259	     -4.91153961	     11.54832194	     -7.37823863	    -13.80039452	     17.79957956	     17.79957956	     11.66477117	     -8.78868935	     -4.77327705	    -10.73463480	      5.49903905	      0.65597403	     -8.72710517	    -11.29697273	     -4.21270210	     28.93705599	     45.45716687	      0.00000000	      0.00000000	     22.01098961	    -22.04818313	    -11.40072013	     50.15275894	     46.64218917	      0.00000000	      0.00000000
     33.72200000	     -4.59645518	     -5.22774889	     -4.13060058	      1.04038490	      0.93557430	      0.38635174	     29.36877805	     -2.94645708	     -7.00094506	     27.15101698	     27.15101698	     -0.02900287	      0.60017712	     -4.00398879	     11.02754708	     -7.22059617	    -14.12529704	     17.46944725	     17.46944725	     11.86668876	     -8.69277930	     -5.01873300	    -10.74033044	      5.32685436	      0.75368622	     -9.35261692	    -11.33007501	     -4.19557262	     28.80187180	     45.46334866	      0.00000000	      0.00000000	     22.30510483	    -22.19926323	    -11.59230365	     50.80093919	     46.67336175	      0.00000000	      0.00000000
     33.73550000	     -4.66046140	     -4.99034301	     -4.38718503	      1.04045669	      0.93500474	      0.38706662	     28.23677005	     -2.70704865	     -7.91441802	     22.22703241	     22.22703241	      0.06422517	      2.71454946	     -2.70456679	     10.48639847	     -6.97389085	    -14.48379511	     17.13385304	     17.13385304	     12.03524815	     -8.56178259	     -5.37354981	    -10.73007498	      5.09119180	      0.87998028	     -9.87242454	    -11.29371117	     -4.20461169	     28.78710938	     45.46821055	      0.00000000	      0.00000000	     22.47401384	    -22.33453922	    -11.84914314	     51.57890089	     46.71087882	      0.00000000	      0.00000000
     33.74900000	     -4.68289817	     -4.71895782	     -4.62487503	      1.04078089	      0.93432560	      0.38796627	     27.08887905	     -2.46007742	     -8.90346441	     17.78237811	     17.78237811	      0.22417082	      4.79255015	     -0.85057997	      9.88289552	     -6.69180819	    -14.81662019	     16.78051726	     16.78051726	     12.18794281	     -8.41052207	     -5.84971988	    -10.70880399	      4.77495235	      0.98889839	    -10.27020500	    -11.24675435	     -4.23981080	     28.86711334	     45.47338110	      0.00000000	      0.00000000	     22.49989557	    -22.43662668	    -12.16208873	     52.43873902	     46.75326755	      0.00000000	      0.00000000
     33.76250000	     -4.75193716	     -4.39886117	     -4.85473931	      1.04125490	      0.93352451	      0.38884742	     26.42397623	     -2.38976317	    -10.25423957	     14.76711809	     14.76711809	      1.91712533	      7.37229551	      5.26645369	      9.23283435	     -6.32872243	    -15.20797652	     16.20158033	     16.20158033	     11.86323959	     -8.43077729	     -7.35891765	    -10.63094612	      4.43492448	      0.71697573	    -10.48327342	    -11.22958650	     -4.34859547	     29.36745894	     45.50617511	      0.00000000	      0.00000000	     21.67959971	    -22.51836332	    -13.38235431	     54.59008186	     46.89656936	      0.00000000	      0.00000000
     33.77600000	     -4.88883606	     -3.99171960	     -5.04504919	      1.04184260	      0.93244598	      0.38997897	     25.82156229	     -2.22801781	    -10.76304072	     12.09736609	     12.09736609	      1.78647449	      7.97584119	      6.27043012	      8.84488663	     -5.91292712	    -15.41340310	     16.01501719	     16.01501719	     12.12065533	     -8.47453909	     -7.52847722	    -10.36943202	      4.01104154	      0.80396604	    -10.58881849	    -11.13427885	     -4.30322456	     29.30775110	     45.50946353	      0.00000000	      0.00000000	     21.76325112	    -22.57326368	    -13.46212835	     54.75277574	     46.90836898	      0.00000000	      0.00000000
     33.78950000	     -4.86291487	     -3.74312306	     -5.20398482	      1.04277881	      0.93177616	      0.39122813	     25.04444178	     -1.98357435	    -11.50790192	     10.09818118	     10.09818118	      1.67216365	      8.58695766	      7.24991112	      8.16438808	     -5.64171633	    -15.63934662	     15.66077547	     15.66077547	     12.34079736	     -8.36260921	     -7.71492852	    -10.24860644	      3.74371093	      0.92556639	    -10.60710205	    -11.14889743	     -4.27753070	     29.29123773	     45.51355442	      0.00000000	      0.00000000	     21.69280248	    -22.47057957	    -13.54864046	     54.97318488	     46.91899868	      0.00000000	      0.00000000
     33.80300000	     -4.68355855	     -3.61920309	     -5.32644736	      1.04407662	      0.93145634	      0.39254634	     24.23535235	     -1.73814875	    -12.37093515	      9.02376809	      9.02376809	      1.85623145	      9.20286847	      8.44963464	      7.15874681	     -5.46789720	    -15.88380929	     15.05657405	     15.05657405	     12.48109634	     -8.07048576	     -8.10804517	    -10.30464992	      3.67362778	      1.02543816	    -10.42218622	    -11.22376476	     -4.23515738	     29.32246458	     45.52264532	      0.00000000	      0.00000000	     21.38977655	    -22.25416684	    -13.83102060	     55.38965772	     46.94894102	      0.00000000	      0.00000000
     33.81650000	     -4.79822312	     -3.44171277	     -5.42736385	      1.04517842	      0.93051090	      0.39401285	     24.05400807	     -1.60736829	    -12.81145924	      8.99941016	      8.99941016	      1.87810743	      8.94569488	      8.47994481	      6.80015193	     -5.33401395	    -15.97593015	     15.04220270	     15.04220270	     12.79633343	     -8.16676562	     -8.22387917	     -9.95666182	      3.53861582	      1.17408600	    -10.27352102	    -11.25034584	     -4.23665392	     29.37755237	     45.52224228	      0.00000000	      0.00000000	     21.28623726	    -22.21543604	    -13.84533324	     55.38520291	     46.94925963	      0.00000000	      0.00000000
     33.83000000	     -4.63413490	     -3.26465523	     -5.53456618	      1.04685609	      0.93025053	      0.39554233	     23.41436812	     -1.52207114	    -13.04418129	      9.14290502	      9.14290502	      1.76926410	      8.66552639	      8.16415063	      5.67773110	     -5.07342346	    -16.27266015	     14.19840548	     14.19840548	     12.92096443	     -7.64575994	     -8.49984575	     -9.91002201	      3.43194726	      1.14350189	     -9.80870171	    -11.35653621	     -4.19352696	     29.54996818	     45.52789581	      0.00000000	      0.00000000	     20.59784952	    -21.90778694	    -14.30046913	     55.65170266	     46.98666991	      0.00000000	      0.00000000
